<svg xmlns="http://www.w3.org/2000/svg" width="64" height="64" viewBox="0 0 64 64" fill="none"><g clip-path="url(#clip0_2009_3403)"><path d="M0 6C0 2.68629 2.68629 0 6 0H58C61.3137 0 64 2.68629 64 6V58C64 61.3137 61.3137 64 58 64H6C2.68629 64 0 61.3137 0 58V6Z" fill="#0A0A0A"/><path d="M38.8569 30.2861L42.2856 33.7139V40.5713L38.8569 44H25.143V40.5713H21.7143V37.1426H25.143V40.5713H38.8569V33.7139H25.143V30.2861H38.8569ZM38.8569 20V23.4287H42.2856V26.8574H38.8569V23.4287H25.143V30.2861H21.7143V23.4287L25.143 20H38.8569Z" fill="white"/></g><defs><clipPath id="clip0_2009_3403"><path d="M0 6C0 2.68629 2.68629 0 6 0H58C61.3137 0 64 2.68629 64 6V58C64 61.3137 61.3137 64 58 64H6C2.68629 64 0 61.3137 0 58V6Z" fill="white"/></clipPath></defs></svg>